# xmcd
#
# Track frame offsets: 
#        150
#        10305
#        22862
#        32692
#        46857
#        63642
#        84527
#        96115
#        109227
#        120262
#        134165
#        146300
#        155512
#        167030
#        176815
#        192087
#        204390
#        220402
#        231487
#        246827
#        261602
#
# Disc length: 3684 seconds
#
# Revision: 0
# Processed by: cddbd v1.5.1PL0 Copyright (c) Steve Scherf et al.
# Submitted via: ExactAudioCopy v0.95a5
#
DISCID=2e0e6215
DTITLE=David Davis And The Warrior River Boys - My Dixie Home
DYEAR=1997
DGENRE=Bluegrass
TTITLE0=Pike County Breakdown
TTITLE1=Leavin' Tennessee
TTITLE2=My Dixie Home
TTITLE3=Letters From My Darlin'
TTITLE4=In The Pines
TTITLE5=Long Black Veil
TTITLE6=Hold To God's Unchanging Hand
TTITLE7=House Of Gold
TTITLE8=Gold Ridge
TTITLE9=Deep River Blues
TTITLE10=Diamonds And Stones
TTITLE11=Never Again
TTITLE12=Freight Trains Blues
TTITLE13=Just A Little Talk With Jesus
TTITLE14=Garden In The Sky
TTITLE15=Please Come Back  Little Girl
TTITLE16=A Voice In The Night
TTITLE17=I'M Coming Back ( But I Don't Know When )
TTITLE18=Down In The Willow Garden
TTITLE19=The Sweetest Gift
TTITLE20=Only One Step More
EXTD=
EXTT0=
EXTT1=
EXTT2=
EXTT3=
EXTT4=
EXTT5=
EXTT6=
EXTT7=
EXTT8=
EXTT9=
EXTT10=
EXTT11=
EXTT12=
EXTT13=
EXTT14=
EXTT15=
EXTT16=
EXTT17=
EXTT18=
EXTT19=
EXTT20=
PLAYORDER=
